<svg xmlns="http://www.w3.org/2000/svg" xmlns:xlink="http://www.w3.org/1999/xlink" width="500" zoomAndPan="magnify" viewBox="0 0 375 374.999991" height="500" preserveAspectRatio="xMidYMid meet" version="1.0"><defs><g/><clipPath id="d752b14ad8"><path d="M 164 152 L 209 152 L 209 227.667969 L 164 227.667969 Z M 164 152 " clip-rule="nonzero"/></clipPath><clipPath id="091726452b"><path d="M 146.625 169 L 165 169 L 165 207 L 146.625 207 Z M 146.625 169 " clip-rule="nonzero"/></clipPath><clipPath id="2ba5adceb3"><path d="M 193 152 L 228.375 152 L 228.375 187 L 193 187 Z M 193 152 " clip-rule="nonzero"/></clipPath><clipPath id="57c0cd4f17"><path d="M 204 139.167969 L 218 139.167969 L 218 149 L 204 149 Z M 204 139.167969 " clip-rule="nonzero"/></clipPath></defs><rect x="-37.5" width="450" fill="#ffffff" y="-37.499999" height="449.999989" fill-opacity="1"/><rect x="-37.5" width="450" fill="#ffffff" y="-37.499999" height="449.999989" fill-opacity="1"/><rect x="-37.5" width="450" fill="#6750a7" y="-37.499999" height="449.999989" fill-opacity="1"/><path fill="#f7f7fb" d="M 179.492188 179.34375 L 173.417969 179.34375 L 173.417969 173.289062 C 173.417969 172.925781 173.710938 172.632812 174.074219 172.632812 C 174.433594 172.632812 174.726562 172.925781 174.726562 173.289062 L 174.726562 178.039062 L 179.492188 178.039062 C 179.851562 178.039062 180.144531 178.332031 180.144531 178.691406 C 180.144531 179.050781 179.851562 179.34375 179.492188 179.34375 " fill-opacity="1" fill-rule="nonzero"/><path fill="#f7f7fb" d="M 173.417969 173.984375 C 171.097656 174.304688 169.308594 176.292969 169.308594 178.691406 C 169.308594 181.3125 171.445312 183.445312 174.074219 183.445312 C 176.476562 183.445312 178.472656 181.65625 178.792969 179.34375 L 173.417969 179.34375 Z M 174.074219 184.75 C 170.722656 184.75 168 182.03125 168 178.691406 C 168 175.351562 170.722656 172.632812 174.074219 172.632812 L 174.726562 172.632812 L 174.726562 178.039062 L 180.144531 178.039062 L 180.144531 178.691406 C 180.144531 182.03125 177.421875 184.75 174.074219 184.75 " fill-opacity="1" fill-rule="nonzero"/><path fill="#f7f7fb" d="M 177.4375 175.335938 L 181.5 175.335938 C 181.210938 173.234375 179.542969 171.570312 177.4375 171.28125 Z M 182.855469 176.640625 L 176.128906 176.640625 L 176.128906 169.929688 L 176.78125 169.929688 C 180.128906 169.929688 182.855469 172.648438 182.855469 175.988281 L 182.855469 176.640625 " fill-opacity="1" fill-rule="nonzero"/><g clip-path="url(#d752b14ad8)"><path fill="#f7f7fb" d="M 207.449219 227.601562 L 165.59375 227.601562 C 164.820312 227.601562 164.191406 226.976562 164.191406 226.207031 L 164.191406 153.582031 C 164.191406 152.8125 164.820312 152.1875 165.59375 152.1875 L 206.890625 152.1875 L 206.890625 153.492188 L 165.59375 153.492188 C 165.535156 153.492188 165.503906 153.539062 165.503906 153.582031 L 165.503906 226.207031 C 165.503906 226.25 165.535156 226.296875 165.59375 226.296875 L 207.449219 226.296875 C 207.496094 226.296875 207.535156 226.257812 207.535156 226.207031 L 207.535156 185.375 L 208.84375 185.375 L 208.84375 226.207031 C 208.84375 226.976562 208.21875 227.601562 207.449219 227.601562 " fill-opacity="1" fill-rule="nonzero"/></g><path fill="#f7f7fb" d="M 208.191406 219.015625 L 164.847656 219.015625 L 164.847656 217.710938 L 208.191406 217.710938 L 208.191406 219.015625 " fill-opacity="1" fill-rule="nonzero"/><path fill="#f7f7fb" d="M 202.441406 158.109375 L 164.847656 158.109375 L 164.847656 156.804688 L 202.441406 156.804688 L 202.441406 158.109375 " fill-opacity="1" fill-rule="nonzero"/><path fill="#f7f7fb" d="M 186.519531 221.5625 C 185.871094 221.5625 185.347656 222.089844 185.347656 222.734375 C 185.347656 223.375 185.871094 223.902344 186.519531 223.902344 C 187.164062 223.902344 187.691406 223.375 187.691406 222.734375 C 187.691406 222.089844 187.164062 221.5625 186.519531 221.5625 Z M 186.519531 225.207031 C 185.148438 225.207031 184.039062 224.097656 184.039062 222.734375 C 184.039062 221.367188 185.148438 220.257812 186.519531 220.257812 C 187.886719 220.257812 189 221.367188 189 222.734375 C 189 224.097656 187.886719 225.207031 186.519531 225.207031 " fill-opacity="1" fill-rule="nonzero"/><g clip-path="url(#091726452b)"><path fill="#f7f7fb" d="M 164.84375 206.078125 L 162.527344 206.078125 C 161.804688 206.078125 161.21875 205.496094 161.21875 204.78125 L 161.21875 201.898438 C 161.148438 201.886719 161.054688 201.859375 160.964844 201.835938 L 159.535156 204.320312 C 159.351562 204.625 159.070312 204.839844 158.738281 204.929688 C 158.398438 205.023438 158.042969 204.972656 157.742188 204.792969 L 153.730469 202.484375 C 153.429688 202.3125 153.210938 202.03125 153.121094 201.695312 C 153.027344 201.355469 153.078125 201.007812 153.253906 200.707031 L 154.699219 198.210938 L 154.523438 198.046875 L 152.015625 199.476562 C 151.707031 199.648438 151.359375 199.695312 151.023438 199.605469 C 150.6875 199.515625 150.40625 199.296875 150.234375 198.996094 L 147.910156 194.984375 C 147.558594 194.347656 147.777344 193.554688 148.390625 193.214844 L 150.898438 191.769531 C 150.867188 191.679688 150.84375 191.621094 150.828125 191.558594 L 147.941406 191.53125 C 147.222656 191.53125 146.640625 190.949219 146.640625 190.230469 L 146.640625 185.59375 C 146.640625 184.878906 147.222656 184.296875 147.941406 184.296875 L 150.832031 184.296875 C 150.84375 184.207031 150.863281 184.152344 150.875 184.097656 L 148.386719 182.609375 C 147.765625 182.246094 147.558594 181.472656 147.902344 180.847656 L 150.234375 176.824219 C 150.40625 176.523438 150.6875 176.3125 151.023438 176.21875 C 151.359375 176.128906 151.707031 176.175781 152.011719 176.347656 L 154.515625 177.796875 C 154.539062 177.757812 154.589844 177.707031 154.644531 177.65625 L 153.25 175.113281 C 153.078125 174.820312 153.027344 174.46875 153.121094 174.128906 C 153.210938 173.792969 153.429688 173.511719 153.734375 173.339844 L 157.75 171.027344 C 158.355469 170.664062 159.160156 170.871094 159.53125 171.488281 L 160.976562 173.996094 C 161.074219 173.957031 161.160156 173.933594 161.25 173.917969 L 161.21875 171.042969 C 161.21875 170.332031 161.804688 169.75 162.527344 169.75 L 164.84375 169.75 L 164.84375 171.054688 L 162.527344 171.054688 L 162.527344 173.929688 C 162.527344 174.523438 162.121094 175.042969 161.535156 175.191406 C 161.453125 175.207031 161.40625 175.222656 161.359375 175.238281 C 160.75 175.40625 160.136719 175.160156 159.839844 174.644531 L 158.398438 172.148438 L 154.382812 174.46875 L 155.828125 176.960938 C 156.125 177.480469 156.039062 178.113281 155.609375 178.542969 L 155.546875 178.601562 C 155.523438 178.625 155.5 178.644531 155.480469 178.671875 C 155.039062 179.128906 154.382812 179.222656 153.867188 178.929688 L 151.359375 177.480469 L 149.042969 181.488281 L 151.550781 182.914062 C 152.074219 183.226562 152.308594 183.824219 152.144531 184.40625 C 152.136719 184.453125 152.109375 184.546875 152.082031 184.640625 C 151.9375 185.195312 151.421875 185.601562 150.832031 185.601562 L 147.941406 185.601562 L 147.949219 190.230469 L 150.832031 190.226562 C 151.421875 190.226562 151.9375 190.628906 152.089844 191.210938 C 152.109375 191.273438 152.132812 191.363281 152.152344 191.441406 C 152.308594 191.996094 152.066406 192.609375 151.550781 192.902344 L 149.042969 194.347656 L 151.367188 198.347656 L 153.859375 196.898438 C 154.386719 196.601562 155.039062 196.699219 155.453125 197.128906 L 155.613281 197.285156 C 156.042969 197.714844 156.132812 198.347656 155.835938 198.863281 L 154.386719 201.363281 L 158.402344 203.664062 L 159.84375 201.179688 C 160.136719 200.660156 160.75 200.414062 161.332031 200.578125 C 161.398438 200.601562 161.453125 200.617188 161.507812 200.625 C 162.121094 200.785156 162.527344 201.304688 162.527344 201.898438 L 162.527344 204.78125 L 164.84375 204.773438 L 164.84375 206.078125 " fill-opacity="1" fill-rule="nonzero"/></g><path fill="#f7f7fb" d="M 164.84375 198.777344 C 158.835938 198.777344 153.953125 193.902344 153.953125 187.914062 C 153.953125 181.921875 158.835938 177.046875 164.84375 177.046875 L 164.84375 178.351562 C 159.5625 178.351562 155.261719 182.644531 155.261719 187.914062 C 155.261719 193.183594 159.5625 197.472656 164.84375 197.472656 L 164.84375 198.777344 " fill-opacity="1" fill-rule="nonzero"/><path fill="#f7f7fb" d="M 174.136719 210.8125 L 175.984375 210.8125 L 175.984375 196.214844 C 175.984375 196.097656 175.890625 196 175.769531 196 L 174.355469 196 C 174.238281 196 174.136719 196.097656 174.136719 196.214844 Z M 177.296875 212.117188 L 172.828125 212.117188 L 172.828125 196.214844 C 172.828125 195.378906 173.515625 194.691406 174.355469 194.691406 L 175.769531 194.691406 C 176.609375 194.691406 177.296875 195.378906 177.296875 196.214844 L 177.296875 212.117188 " fill-opacity="1" fill-rule="nonzero"/><path fill="#f7f7fb" d="M 181.289062 210.8125 L 183.136719 210.8125 L 183.136719 190.9375 C 183.136719 190.816406 183.039062 190.71875 182.921875 190.71875 L 181.507812 190.71875 C 181.386719 190.71875 181.289062 190.816406 181.289062 190.9375 Z M 184.449219 212.117188 L 179.980469 212.117188 L 179.980469 190.9375 C 179.980469 190.097656 180.667969 189.414062 181.507812 189.414062 L 182.921875 189.414062 C 183.761719 189.414062 184.449219 190.097656 184.449219 190.9375 L 184.449219 212.117188 " fill-opacity="1" fill-rule="nonzero"/><path fill="#f7f7fb" d="M 188.441406 210.8125 L 190.289062 210.8125 L 190.289062 185.65625 C 190.289062 185.535156 190.191406 185.4375 190.070312 185.4375 L 188.660156 185.4375 C 188.539062 185.4375 188.441406 185.535156 188.441406 185.65625 Z M 191.601562 212.117188 L 187.132812 212.117188 L 187.132812 185.65625 C 187.132812 184.816406 187.816406 184.132812 188.660156 184.132812 L 190.070312 184.132812 C 190.914062 184.132812 191.601562 184.816406 191.601562 185.65625 L 191.601562 212.117188 " fill-opacity="1" fill-rule="nonzero"/><path fill="#f7f7fb" d="M 195.773438 212.117188 L 168.652344 212.117188 C 168.292969 212.117188 168 211.824219 168 211.464844 C 168 211.105469 168.292969 210.8125 168.652344 210.8125 L 195.773438 210.8125 C 196.136719 210.8125 196.429688 211.105469 196.429688 211.464844 C 196.429688 211.824219 196.136719 212.117188 195.773438 212.117188 " fill-opacity="1" fill-rule="nonzero"/><path fill="#f7f7fb" d="M 212.898438 179.328125 L 206.5 179.328125 C 206.136719 179.328125 205.84375 179.035156 205.84375 178.675781 C 205.84375 178.3125 206.136719 178.023438 206.5 178.023438 L 212.898438 178.023438 C 214.148438 178.023438 215.167969 177.007812 215.167969 175.757812 L 215.167969 172.089844 C 215.167969 170.84375 214.148438 169.824219 212.898438 169.824219 L 209.425781 169.824219 C 207.449219 169.824219 205.84375 168.222656 205.84375 166.253906 L 205.84375 162.589844 C 205.84375 160.617188 207.449219 159.015625 209.425781 159.015625 L 215.824219 159.015625 C 216.183594 159.015625 216.476562 159.308594 216.476562 159.667969 C 216.476562 160.027344 216.183594 160.320312 215.824219 160.320312 L 209.425781 160.320312 C 208.171875 160.320312 207.152344 161.339844 207.152344 162.589844 L 207.152344 166.253906 C 207.152344 167.503906 208.171875 168.519531 209.425781 168.519531 L 212.898438 168.519531 C 214.871094 168.519531 216.476562 170.121094 216.476562 172.089844 L 216.476562 175.757812 C 216.476562 177.726562 214.871094 179.328125 212.898438 179.328125 " fill-opacity="1" fill-rule="nonzero"/><path fill="#f7f7fb" d="M 211.160156 182.78125 C 210.800781 182.78125 210.503906 182.488281 210.503906 182.128906 L 210.503906 156.214844 C 210.503906 155.855469 210.800781 155.5625 211.160156 155.5625 C 211.519531 155.5625 211.8125 155.855469 211.8125 156.214844 L 211.8125 182.128906 C 211.8125 182.488281 211.519531 182.78125 211.160156 182.78125 " fill-opacity="1" fill-rule="nonzero"/><g clip-path="url(#2ba5adceb3)"><path fill="#f7f7fb" d="M 211.160156 153.621094 C 202.523438 153.621094 195.234375 167.855469 195.234375 176.796875 C 195.234375 178.148438 195.398438 179.496094 195.730469 180.796875 C 196.308594 183.070312 198.773438 184.722656 201.585938 184.722656 L 220.734375 184.722656 C 223.550781 184.722656 226.015625 183.070312 226.59375 180.796875 C 226.921875 179.496094 227.089844 178.148438 227.089844 176.796875 C 227.089844 167.855469 219.800781 153.621094 211.160156 153.621094 Z M 220.734375 186.027344 L 201.585938 186.027344 C 198.183594 186.027344 195.183594 183.960938 194.460938 181.117188 C 194.105469 179.710938 193.921875 178.257812 193.921875 176.796875 C 193.921875 167.128906 201.644531 152.316406 211.160156 152.316406 C 220.675781 152.316406 228.398438 167.128906 228.398438 176.796875 C 228.398438 178.257812 228.21875 179.710938 227.863281 181.117188 C 227.136719 183.960938 224.140625 186.027344 220.734375 186.027344 " fill-opacity="1" fill-rule="nonzero"/></g><path fill="#f7f7fb" d="M 207.71875 148.058594 C 206.542969 148.058594 205.585938 149.011719 205.585938 150.1875 C 205.585938 151.359375 206.542969 152.316406 207.71875 152.316406 L 214.605469 152.316406 C 215.78125 152.316406 216.738281 151.359375 216.738281 150.1875 C 216.738281 149.011719 215.78125 148.058594 214.605469 148.058594 Z M 214.605469 153.621094 L 207.71875 153.621094 C 205.820312 153.621094 204.277344 152.082031 204.277344 150.1875 C 204.277344 148.292969 205.820312 146.75 207.71875 146.75 L 214.605469 146.75 C 216.503906 146.75 218.046875 148.292969 218.046875 150.1875 C 218.046875 152.082031 216.503906 153.621094 214.605469 153.621094 " fill-opacity="1" fill-rule="nonzero"/><g clip-path="url(#57c0cd4f17)"><path fill="#f7f7fb" d="M 207.816406 146.75 L 214.503906 146.75 L 216.519531 140.472656 L 205.757812 140.539062 Z M 215.457031 148.058594 L 206.863281 148.058594 L 204.558594 140.871094 C 204.4375 140.492188 204.503906 140.074219 204.738281 139.75 C 204.976562 139.425781 205.355469 139.234375 205.757812 139.234375 L 216.566406 139.234375 C 216.96875 139.234375 217.347656 139.425781 217.582031 139.75 C 217.820312 140.074219 217.886719 140.492188 217.765625 140.871094 L 215.457031 148.058594 " fill-opacity="1" fill-rule="nonzero"/></g><g fill="#ffffff" fill-opacity="1"><g transform="translate(139.604395, 257.57238)"><g><path d="M 0.6875 -5.578125 C 0.6875 -6.671875 0.929688 -7.648438 1.421875 -8.515625 C 1.910156 -9.390625 2.578125 -10.070312 3.421875 -10.5625 C 4.273438 -11.050781 5.21875 -11.296875 6.25 -11.296875 C 7.46875 -11.296875 8.53125 -11 9.4375 -10.40625 C 10.34375 -9.820312 11.003906 -8.992188 11.421875 -7.921875 L 9.6875 -7.921875 C 9.375 -8.585938 8.925781 -9.101562 8.34375 -9.46875 C 7.757812 -9.832031 7.0625 -10.015625 6.25 -10.015625 C 5.476562 -10.015625 4.78125 -9.832031 4.15625 -9.46875 C 3.539062 -9.101562 3.054688 -8.585938 2.703125 -7.921875 C 2.347656 -7.253906 2.171875 -6.472656 2.171875 -5.578125 C 2.171875 -4.691406 2.347656 -3.914062 2.703125 -3.25 C 3.054688 -2.582031 3.539062 -2.066406 4.15625 -1.703125 C 4.78125 -1.347656 5.476562 -1.171875 6.25 -1.171875 C 7.0625 -1.171875 7.757812 -1.347656 8.34375 -1.703125 C 8.925781 -2.054688 9.375 -2.570312 9.6875 -3.25 L 11.421875 -3.25 C 11.003906 -2.175781 10.34375 -1.347656 9.4375 -0.765625 C 8.53125 -0.191406 7.46875 0.09375 6.25 0.09375 C 5.21875 0.09375 4.273438 -0.144531 3.421875 -0.625 C 2.578125 -1.113281 1.910156 -1.789062 1.421875 -2.65625 C 0.929688 -3.519531 0.6875 -4.492188 0.6875 -5.578125 Z M 0.6875 -5.578125 "/></g></g></g><g fill="#ffffff" fill-opacity="1"><g transform="translate(151.953428, 257.57238)"><g><path d="M 5.0625 0.140625 C 4.238281 0.140625 3.492188 -0.0390625 2.828125 -0.40625 C 2.160156 -0.78125 1.632812 -1.3125 1.25 -2 C 0.875 -2.695312 0.6875 -3.5 0.6875 -4.40625 C 0.6875 -5.300781 0.878906 -6.09375 1.265625 -6.78125 C 1.660156 -7.46875 2.191406 -7.992188 2.859375 -8.359375 C 3.535156 -8.722656 4.289062 -8.90625 5.125 -8.90625 C 5.957031 -8.90625 6.707031 -8.722656 7.375 -8.359375 C 8.050781 -7.992188 8.582031 -7.46875 8.96875 -6.78125 C 9.351562 -6.101562 9.546875 -5.3125 9.546875 -4.40625 C 9.546875 -3.5 9.347656 -2.695312 8.953125 -2 C 8.554688 -1.3125 8.015625 -0.78125 7.328125 -0.40625 C 6.640625 -0.0390625 5.882812 0.140625 5.0625 0.140625 Z M 5.0625 -1.140625 C 5.582031 -1.140625 6.070312 -1.257812 6.53125 -1.5 C 6.988281 -1.75 7.359375 -2.117188 7.640625 -2.609375 C 7.921875 -3.097656 8.0625 -3.695312 8.0625 -4.40625 C 8.0625 -5.101562 7.921875 -5.695312 7.640625 -6.1875 C 7.367188 -6.675781 7.007812 -7.039062 6.5625 -7.28125 C 6.113281 -7.519531 5.628906 -7.640625 5.109375 -7.640625 C 4.566406 -7.640625 4.070312 -7.519531 3.625 -7.28125 C 3.1875 -7.039062 2.832031 -6.675781 2.5625 -6.1875 C 2.300781 -5.695312 2.171875 -5.101562 2.171875 -4.40625 C 2.171875 -3.6875 2.300781 -3.082031 2.5625 -2.59375 C 2.820312 -2.101562 3.171875 -1.738281 3.609375 -1.5 C 4.046875 -1.257812 4.53125 -1.140625 5.0625 -1.140625 Z M 5.0625 -1.140625 "/></g></g></g><g fill="#ffffff" fill-opacity="1"><g transform="translate(162.190968, 257.57238)"><g><path d="M 5.5 -8.921875 C 6.570312 -8.921875 7.4375 -8.597656 8.09375 -7.953125 C 8.757812 -7.304688 9.09375 -6.378906 9.09375 -5.171875 L 9.09375 0 L 7.640625 0 L 7.640625 -4.953125 C 7.640625 -5.828125 7.421875 -6.492188 6.984375 -6.953125 C 6.554688 -7.421875 5.960938 -7.65625 5.203125 -7.65625 C 4.429688 -7.65625 3.816406 -7.414062 3.359375 -6.9375 C 2.910156 -6.457031 2.6875 -5.757812 2.6875 -4.84375 L 2.6875 0 L 1.234375 0 L 1.234375 -8.765625 L 2.6875 -8.765625 L 2.6875 -7.515625 C 2.976562 -7.960938 3.367188 -8.304688 3.859375 -8.546875 C 4.359375 -8.796875 4.90625 -8.921875 5.5 -8.921875 Z M 5.5 -8.921875 "/></g></g></g><g fill="#ffffff" fill-opacity="1"><g transform="translate(172.428509, 257.57238)"><g><path d="M 3.015625 -7.5625 L 3.015625 -2.40625 C 3.015625 -1.976562 3.101562 -1.675781 3.28125 -1.5 C 3.457031 -1.320312 3.769531 -1.234375 4.21875 -1.234375 L 5.296875 -1.234375 L 5.296875 0 L 3.984375 0 C 3.171875 0 2.5625 -0.1875 2.15625 -0.5625 C 1.75 -0.9375 1.546875 -1.550781 1.546875 -2.40625 L 1.546875 -7.5625 L 0.421875 -7.5625 L 0.421875 -8.765625 L 1.546875 -8.765625 L 1.546875 -10.96875 L 3.015625 -10.96875 L 3.015625 -8.765625 L 5.296875 -8.765625 L 5.296875 -7.5625 Z M 3.015625 -7.5625 "/></g></g></g><g fill="#ffffff" fill-opacity="1"><g transform="translate(178.251114, 257.57238)"><g><path d="M 2.6875 -7.34375 C 2.945312 -7.84375 3.3125 -8.226562 3.78125 -8.5 C 4.257812 -8.78125 4.835938 -8.921875 5.515625 -8.921875 L 5.515625 -7.421875 L 5.140625 -7.421875 C 3.503906 -7.421875 2.6875 -6.535156 2.6875 -4.765625 L 2.6875 0 L 1.234375 0 L 1.234375 -8.765625 L 2.6875 -8.765625 Z M 2.6875 -7.34375 "/></g></g></g><g fill="#ffffff" fill-opacity="1"><g transform="translate(184.217685, 257.57238)"><g><path d="M 5.0625 0.140625 C 4.238281 0.140625 3.492188 -0.0390625 2.828125 -0.40625 C 2.160156 -0.78125 1.632812 -1.3125 1.25 -2 C 0.875 -2.695312 0.6875 -3.5 0.6875 -4.40625 C 0.6875 -5.300781 0.878906 -6.09375 1.265625 -6.78125 C 1.660156 -7.46875 2.191406 -7.992188 2.859375 -8.359375 C 3.535156 -8.722656 4.289062 -8.90625 5.125 -8.90625 C 5.957031 -8.90625 6.707031 -8.722656 7.375 -8.359375 C 8.050781 -7.992188 8.582031 -7.46875 8.96875 -6.78125 C 9.351562 -6.101562 9.546875 -5.3125 9.546875 -4.40625 C 9.546875 -3.5 9.347656 -2.695312 8.953125 -2 C 8.554688 -1.3125 8.015625 -0.78125 7.328125 -0.40625 C 6.640625 -0.0390625 5.882812 0.140625 5.0625 0.140625 Z M 5.0625 -1.140625 C 5.582031 -1.140625 6.070312 -1.257812 6.53125 -1.5 C 6.988281 -1.75 7.359375 -2.117188 7.640625 -2.609375 C 7.921875 -3.097656 8.0625 -3.695312 8.0625 -4.40625 C 8.0625 -5.101562 7.921875 -5.695312 7.640625 -6.1875 C 7.367188 -6.675781 7.007812 -7.039062 6.5625 -7.28125 C 6.113281 -7.519531 5.628906 -7.640625 5.109375 -7.640625 C 4.566406 -7.640625 4.070312 -7.519531 3.625 -7.28125 C 3.1875 -7.039062 2.832031 -6.675781 2.5625 -6.1875 C 2.300781 -5.695312 2.171875 -5.101562 2.171875 -4.40625 C 2.171875 -3.6875 2.300781 -3.082031 2.5625 -2.59375 C 2.820312 -2.101562 3.171875 -1.738281 3.609375 -1.5 C 4.046875 -1.257812 4.53125 -1.140625 5.0625 -1.140625 Z M 5.0625 -1.140625 "/></g></g></g><g fill="#ffffff" fill-opacity="1"><g transform="translate(194.455226, 257.57238)"><g><path d="M 2.6875 -11.84375 L 2.6875 0 L 1.234375 0 L 1.234375 -11.84375 Z M 2.6875 -11.84375 "/></g></g></g><g fill="#ffffff" fill-opacity="1"><g transform="translate(198.390276, 257.57238)"><g><path d="M 9.234375 -4.71875 C 9.234375 -4.4375 9.21875 -4.144531 9.1875 -3.84375 L 2.171875 -3.84375 C 2.222656 -2.976562 2.519531 -2.300781 3.0625 -1.8125 C 3.601562 -1.332031 4.257812 -1.09375 5.03125 -1.09375 C 5.65625 -1.09375 6.175781 -1.238281 6.59375 -1.53125 C 7.019531 -1.820312 7.316406 -2.210938 7.484375 -2.703125 L 9.0625 -2.703125 C 8.820312 -1.859375 8.347656 -1.171875 7.640625 -0.640625 C 6.941406 -0.117188 6.070312 0.140625 5.03125 0.140625 C 4.195312 0.140625 3.453125 -0.0390625 2.796875 -0.40625 C 2.140625 -0.78125 1.625 -1.3125 1.25 -2 C 0.875 -2.695312 0.6875 -3.5 0.6875 -4.40625 C 0.6875 -5.3125 0.867188 -6.101562 1.234375 -6.78125 C 1.597656 -7.46875 2.109375 -7.992188 2.765625 -8.359375 C 3.421875 -8.722656 4.175781 -8.90625 5.03125 -8.90625 C 5.851562 -8.90625 6.582031 -8.722656 7.21875 -8.359375 C 7.863281 -8.003906 8.359375 -7.507812 8.703125 -6.875 C 9.054688 -6.238281 9.234375 -5.519531 9.234375 -4.71875 Z M 7.734375 -5.03125 C 7.734375 -5.582031 7.609375 -6.054688 7.359375 -6.453125 C 7.109375 -6.859375 6.773438 -7.164062 6.359375 -7.375 C 5.941406 -7.582031 5.472656 -7.6875 4.953125 -7.6875 C 4.222656 -7.6875 3.597656 -7.445312 3.078125 -6.96875 C 2.554688 -6.5 2.257812 -5.851562 2.1875 -5.03125 Z M 7.734375 -5.03125 "/></g></g></g><g fill="#ffffff" fill-opacity="1"><g transform="translate(208.307897, 257.57238)"><g><path d="M 7.3125 -6.484375 L 7.3125 -5.25 L 0.9375 -5.25 L 0.9375 -6.484375 Z M 7.3125 -6.484375 "/></g></g></g><g fill="#ffffff" fill-opacity="1"><g transform="translate(217.121781, 257.57238)"><g><path d="M 4.34375 0.140625 C 3.664062 0.140625 3.0625 0.0234375 2.53125 -0.203125 C 2 -0.429688 1.578125 -0.75 1.265625 -1.15625 C 0.953125 -1.570312 0.78125 -2.046875 0.75 -2.578125 L 2.25 -2.578125 C 2.289062 -2.140625 2.492188 -1.78125 2.859375 -1.5 C 3.234375 -1.226562 3.71875 -1.09375 4.3125 -1.09375 C 4.875 -1.09375 5.3125 -1.210938 5.625 -1.453125 C 5.945312 -1.703125 6.109375 -2.015625 6.109375 -2.390625 C 6.109375 -2.765625 5.9375 -3.046875 5.59375 -3.234375 C 5.257812 -3.421875 4.734375 -3.609375 4.015625 -3.796875 C 3.367188 -3.960938 2.835938 -4.132812 2.421875 -4.3125 C 2.015625 -4.488281 1.660156 -4.75 1.359375 -5.09375 C 1.066406 -5.4375 0.921875 -5.894531 0.921875 -6.46875 C 0.921875 -6.914062 1.054688 -7.320312 1.328125 -7.6875 C 1.597656 -8.0625 1.976562 -8.359375 2.46875 -8.578125 C 2.957031 -8.796875 3.515625 -8.90625 4.140625 -8.90625 C 5.109375 -8.90625 5.890625 -8.660156 6.484375 -8.171875 C 7.085938 -7.679688 7.410156 -7.007812 7.453125 -6.15625 L 6 -6.15625 C 5.96875 -6.613281 5.78125 -6.984375 5.4375 -7.265625 C 5.101562 -7.546875 4.65625 -7.6875 4.09375 -7.6875 C 3.570312 -7.6875 3.15625 -7.570312 2.84375 -7.34375 C 2.539062 -7.125 2.390625 -6.832031 2.390625 -6.46875 C 2.390625 -6.175781 2.476562 -5.9375 2.65625 -5.75 C 2.84375 -5.5625 3.078125 -5.410156 3.359375 -5.296875 C 3.648438 -5.191406 4.046875 -5.066406 4.546875 -4.921875 C 5.171875 -4.753906 5.679688 -4.585938 6.078125 -4.421875 C 6.472656 -4.253906 6.8125 -4.003906 7.09375 -3.671875 C 7.375 -3.347656 7.519531 -2.921875 7.53125 -2.390625 C 7.53125 -1.898438 7.394531 -1.460938 7.125 -1.078125 C 6.863281 -0.703125 6.488281 -0.40625 6 -0.1875 C 5.519531 0.03125 4.96875 0.140625 4.34375 0.140625 Z M 4.34375 0.140625 "/></g></g></g><g fill="#ffffff" fill-opacity="1"><g transform="translate(225.471779, 257.57238)"><g><path d="M 9.234375 -4.71875 C 9.234375 -4.4375 9.21875 -4.144531 9.1875 -3.84375 L 2.171875 -3.84375 C 2.222656 -2.976562 2.519531 -2.300781 3.0625 -1.8125 C 3.601562 -1.332031 4.257812 -1.09375 5.03125 -1.09375 C 5.65625 -1.09375 6.175781 -1.238281 6.59375 -1.53125 C 7.019531 -1.820312 7.316406 -2.210938 7.484375 -2.703125 L 9.0625 -2.703125 C 8.820312 -1.859375 8.347656 -1.171875 7.640625 -0.640625 C 6.941406 -0.117188 6.070312 0.140625 5.03125 0.140625 C 4.195312 0.140625 3.453125 -0.0390625 2.796875 -0.40625 C 2.140625 -0.78125 1.625 -1.3125 1.25 -2 C 0.875 -2.695312 0.6875 -3.5 0.6875 -4.40625 C 0.6875 -5.3125 0.867188 -6.101562 1.234375 -6.78125 C 1.597656 -7.46875 2.109375 -7.992188 2.765625 -8.359375 C 3.421875 -8.722656 4.175781 -8.90625 5.03125 -8.90625 C 5.851562 -8.90625 6.582031 -8.722656 7.21875 -8.359375 C 7.863281 -8.003906 8.359375 -7.507812 8.703125 -6.875 C 9.054688 -6.238281 9.234375 -5.519531 9.234375 -4.71875 Z M 7.734375 -5.03125 C 7.734375 -5.582031 7.609375 -6.054688 7.359375 -6.453125 C 7.109375 -6.859375 6.773438 -7.164062 6.359375 -7.375 C 5.941406 -7.582031 5.472656 -7.6875 4.953125 -7.6875 C 4.222656 -7.6875 3.597656 -7.445312 3.078125 -6.96875 C 2.554688 -6.5 2.257812 -5.851562 2.1875 -5.03125 Z M 7.734375 -5.03125 "/></g></g></g></svg>